<?xml version="1.0" encoding="utf-8"?>
<!-- Generator: Adobe Illustrator 25.0.0, SVG Export Plug-In . SVG Version: 6.00 Build 0)  -->
<svg version="1.1" xmlns="http://www.w3.org/2000/svg" xmlns:xlink="http://www.w3.org/1999/xlink" x="0px" y="0px"
	 viewBox="0 0 1000 1000" style="enable-background:new 0 0 1000 1000;" xml:space="preserve">
<style type="text/css">
	.st0{fill:#0E5257;}
</style>
<g id="Your_design">
</g>
<g id="Guides">
	<path class="st0" d="M695.27,414.44c-5.44-5.89-14.63-6.25-20.52-0.8L514.52,561.78V254.52c0-8.02-6.5-14.52-14.52-14.52
		s-14.52,6.5-14.52,14.52v307.26L325.24,413.63c-5.88-5.44-15.07-5.09-20.51,0.8c-5.44,5.89-5.08,15.07,0.8,20.51l157.35,145.48
		H326.96c-8.02,0-14.52,6.5-14.52,14.52s6.5,14.52,14.52,14.52h135.98l-71.85,66.43c-5.89,5.44-6.25,14.63-0.8,20.51
		c2.86,3.09,6.75,4.66,10.66,4.66c3.52,0,7.06-1.28,9.85-3.86l74.68-69.04v117.31c0,8.02,6.5,14.52,14.52,14.52
		s14.52-6.5,14.52-14.52V628.17l74.68,69.04c2.79,2.58,6.33,3.86,9.85,3.86c3.9,0,7.8-1.57,10.66-4.66
		c5.44-5.89,5.08-15.07-0.8-20.51l-71.85-66.43h135.98c8.02,0,14.52-6.5,14.52-14.52s-6.5-14.52-14.52-14.52H537.12l157.35-145.48
		C700.35,429.51,700.71,420.32,695.27,414.44z"/>
</g>
</svg>
